<svg width="18" height="18" viewBox="0 0 18 18" fill="none" xmlns="http://www.w3.org/2000/svg">
<g id="ant-design:eye-invisible-outlined">
<path id="Vector" d="M16.5622 8.54649C15.9442 7.24465 15.2089 6.18293 14.3561 5.36133L13.4617 6.25571C14.191 6.95268 14.8263 7.86446 15.3756 9C13.9131 12.027 11.8371 13.4648 9.00004 13.4648C8.14844 13.4648 7.36404 13.3337 6.64686 13.0714L5.67777 14.0405C6.67387 14.5005 7.78129 14.7305 9.00004 14.7305C12.3786 14.7305 14.8993 12.9709 16.5622 9.45176C16.629 9.31023 16.6637 9.15565 16.6637 8.99912C16.6637 8.8426 16.629 8.68802 16.5622 8.54649ZM15.4447 2.91024L14.6954 2.16C14.6823 2.14693 14.6668 2.13656 14.6497 2.12948C14.6326 2.1224 14.6143 2.11876 14.5959 2.11876C14.5774 2.11876 14.5591 2.1224 14.542 2.12948C14.5249 2.13656 14.5094 2.14693 14.4964 2.16L12.5738 4.08164C11.5139 3.54024 10.3226 3.26953 9.00004 3.26953C5.62152 3.26953 3.10082 5.0291 1.43793 8.54824C1.37109 8.68978 1.33643 8.84436 1.33643 9.00088C1.33643 9.1574 1.37109 9.31198 1.43793 9.45352C2.10227 10.8527 2.90207 11.9743 3.83735 12.8181L1.97723 14.6777C1.95088 14.7041 1.93607 14.7399 1.93607 14.7771C1.93607 14.8144 1.95088 14.8502 1.97723 14.8765L2.72764 15.627C2.75401 15.6533 2.78976 15.6681 2.82704 15.6681C2.86432 15.6681 2.90008 15.6533 2.92645 15.627L15.4447 3.10922C15.4578 3.09616 15.4682 3.08065 15.4752 3.06358C15.4823 3.04651 15.486 3.02821 15.486 3.00973C15.486 2.99125 15.4823 2.97295 15.4752 2.95588C15.4682 2.93881 15.4578 2.9233 15.4447 2.91024ZM2.62445 9C4.08871 5.97305 6.16469 4.53516 9.00004 4.53516C9.95875 4.53516 10.8305 4.69969 11.6213 5.0342L10.3855 6.26994C9.80032 5.95769 9.13022 5.84181 8.47411 5.93938C7.818 6.03695 7.21063 6.34282 6.74159 6.81186C6.27255 7.2809 5.96668 7.88828 5.86911 8.54439C5.77153 9.20049 5.88742 9.87059 6.19967 10.4558L4.7333 11.9222C3.92172 11.2059 3.22211 10.2354 2.62445 9ZM6.96098 9C6.96129 8.69004 7.03471 8.38452 7.17527 8.10826C7.31584 7.832 7.51959 7.5928 7.76998 7.41008C8.02036 7.22736 8.31032 7.10628 8.61629 7.05667C8.92226 7.00707 9.23561 7.03034 9.5309 7.12459L7.05432 9.60118C6.99224 9.40683 6.96075 9.20402 6.96098 9Z" fill="#4B94DD"/>
<path id="Vector_2" d="M8.92945 10.9688C8.86863 10.9688 8.80869 10.9659 8.74928 10.9605L7.8208 11.889C8.37924 12.1028 8.98767 12.1504 9.57255 12.0258C10.1574 11.9012 10.6937 11.6099 11.1165 11.1871C11.5394 10.7642 11.8307 10.228 11.9553 9.6431C12.0798 9.05822 12.0323 8.44979 11.8184 7.89135L10.8899 8.81983C10.8954 8.87924 10.8982 8.93918 10.8982 9C10.8983 9.25858 10.8475 9.51465 10.7486 9.75357C10.6497 9.9925 10.5047 10.2096 10.3219 10.3924C10.139 10.5753 9.92195 10.7203 9.68303 10.8192C9.4441 10.9181 9.18803 10.9689 8.92945 10.9688Z" fill="#4B94DD"/>
</g>
</svg>
