<svg width="180" height="180" viewBox="0 0 180 180" fill="none" xmlns="http://www.w3.org/2000/svg">
<path d="M89.8341 179.196C139.318 179.196 179.432 139.081 179.432 89.5978C179.432 40.1143 139.318 0 89.8341 0C40.3506 0 0.236328 40.1143 0.236328 89.5978C0.236328 139.081 40.3506 179.196 89.8341 179.196Z" fill="#4B94DD"/>
<path d="M158.969 110.875C157.958 110.734 156.947 110.629 155.912 110.582C155.018 110.523 154.113 110.488 153.196 110.488C145.094 110.488 137.545 112.755 131.113 116.691C131.359 116.679 131.606 116.679 131.853 116.679C138.274 116.679 144.376 118.113 149.833 120.674C139.602 121.085 130.172 124.633 122.47 130.379C120.412 131.918 118.472 133.61 116.673 135.443C115.462 136.676 114.321 137.98 113.239 139.343L112.91 139.755C111.722 141.294 110.617 142.903 109.617 144.583C109.124 145.406 108.653 146.24 108.206 147.086C107.125 149.142 106.196 151.28 105.42 153.489C105.255 153.924 105.126 154.359 104.984 154.805C103.656 157.954 100.528 160.163 96.8944 160.163C94.3427 160.163 92.0498 159.07 90.4623 157.355C90.4035 157.425 90.333 157.496 90.2742 157.554C90.0272 157.789 89.7803 158.013 89.5334 158.224C88.0282 159.434 86.1116 160.163 84.0303 160.163C80.338 160.163 77.1866 157.895 75.8932 154.676C75.7873 154.312 75.658 153.947 75.5286 153.583C75.5286 153.571 75.5286 153.571 75.5286 153.571C74.6938 151.198 73.6943 148.919 72.5184 146.722C72.1186 145.958 71.6717 145.194 71.2249 144.454C70.1431 142.668 68.9672 140.953 67.6737 139.343C66.639 138.027 65.5336 136.759 64.3578 135.56C64.3342 135.501 64.3107 135.466 64.299 135.419C64.2754 135.431 64.2402 135.431 64.2284 135.419C62.4176 133.563 60.4538 131.859 58.3608 130.308C50.4236 124.422 40.6755 120.874 30.0926 120.65C35.4664 118.136 41.4399 116.715 47.7543 116.691C41.334 112.755 33.7731 110.499 25.6831 110.499C25.3656 110.499 25.0481 110.499 24.7188 110.511C23.6958 110.535 22.6963 110.593 21.6851 110.687C23.002 108.995 24.4954 107.444 26.1416 106.07C30.5747 102.322 36.0543 99.7958 42.0866 99.0086C40.7226 98.8207 39.335 98.7267 37.9122 98.7267C34.996 98.7267 32.1857 99.1261 29.5164 99.8781C32.9618 94.9787 37.7829 91.1132 43.4271 88.8692C36.6658 76.3329 32.8206 68.3552 32.8206 53.1049C32.8206 44.9392 33.9142 37.0321 35.9838 29.5244C55.3858 31.3103 71.9892 42.7774 80.9142 59.0382C83.9244 58.3097 87.064 57.9338 90.2859 57.9338C93.5431 57.9338 96.6945 58.3332 99.7283 59.0617H99.74C108.653 42.8127 125.21 31.3455 144.588 29.5362C146.658 37.0438 147.751 44.9392 147.751 53.1049C147.751 68.3435 143.906 76.3211 137.157 88.8574C142.765 91.1015 147.563 94.9199 151.008 99.7723C148.445 99.0909 145.752 98.7267 142.977 98.7267C141.496 98.7267 140.037 98.8324 138.603 99.0321C144.635 99.8781 150.126 102.439 154.524 106.234C156.159 107.597 157.64 109.16 158.969 110.875Z" fill="#777777"/>
<path d="M101.114 146.253C101.114 152.198 96.3045 157.038 90.3663 157.085H90.3075C90.2958 157.085 90.2958 157.085 90.284 157.085C84.2988 157.085 79.4424 152.233 79.4424 146.253C79.4424 142.234 81.6413 138.733 84.8985 136.865C86.4741 135.949 88.3203 135.432 90.284 135.432C92.283 135.432 94.1527 135.972 95.7519 136.912C98.962 138.78 101.114 142.27 101.114 146.253Z" fill="#111010"/>
<path d="M90.3198 157.473C90.2963 157.508 90.2728 157.531 90.261 157.543C90.0141 157.778 89.7672 158.001 89.5085 158.213C88.0033 159.423 86.0867 160.152 84.0054 160.152C80.3131 160.152 77.1617 157.884 75.8683 154.665C75.7624 154.3 75.6331 153.936 75.5037 153.572C75.5037 153.56 75.5037 153.56 75.5037 153.56C74.6689 151.187 73.6694 148.908 72.4935 146.711C72.0937 145.947 71.6468 145.183 71.2 144.443C70.1182 142.657 68.9423 140.942 67.6489 139.332C66.6141 138.016 65.5088 136.747 64.3329 135.549C64.3094 135.49 64.2858 135.455 64.2741 135.408C64.2506 135.42 64.2153 135.42 64.2035 135.408C62.3927 133.552 60.4289 131.848 58.3359 130.297C50.3987 124.411 40.6506 120.862 30.0677 120.639C35.4415 118.125 41.415 116.703 47.7294 116.68C41.3091 112.744 33.7482 110.488 25.6582 110.488C25.3407 110.488 25.0232 110.488 24.6939 110.5C23.6709 110.523 22.6714 110.582 21.6602 110.676C21.6837 110.653 21.6954 110.629 21.7189 110.617C26.8811 108.914 32.4077 107.985 38.146 107.985C58.6181 107.985 76.3386 119.758 84.8873 136.877C81.6301 138.745 79.4312 142.246 79.4312 146.264C79.4312 152.244 84.2876 157.097 90.2728 157.097C90.2846 157.097 90.2846 157.097 90.2963 157.097C90.2963 157.202 90.3081 157.343 90.3198 157.473Z" fill="white"/>
<path d="M158.969 110.875C157.958 110.734 156.947 110.628 155.912 110.581C155.018 110.522 154.113 110.487 153.196 110.487C145.094 110.487 137.545 112.754 131.112 116.69C131.359 116.679 131.606 116.679 131.853 116.679C138.274 116.679 144.376 118.112 149.832 120.673C139.602 121.085 130.172 124.633 122.47 130.378C120.412 131.917 118.472 133.609 116.673 135.442C115.462 136.676 114.321 137.98 113.239 139.343L112.91 139.754C111.722 141.293 110.617 142.903 109.617 144.583C109.124 145.405 108.653 146.239 108.206 147.085C107.125 149.141 106.196 151.28 105.419 153.489C105.255 153.923 105.126 154.358 104.984 154.804C103.656 157.953 100.528 160.162 96.8943 160.162C94.3427 160.162 92.0497 159.069 90.4623 157.354C90.427 157.401 90.4035 157.425 90.3564 157.46C90.3682 157.331 90.38 157.213 90.38 157.084C96.3182 157.037 101.128 152.196 101.128 146.251C101.128 142.268 98.9757 138.779 95.7655 136.899C104.314 119.745 122.035 107.961 142.53 107.961C148.163 107.961 153.595 108.854 158.675 110.51C158.781 110.628 158.875 110.757 158.969 110.875Z" fill="white"/>
<path d="M158.969 110.875C157.958 110.734 156.947 110.629 155.912 110.582C155.018 110.523 154.113 110.488 153.196 110.488C145.094 110.488 137.545 112.755 131.113 116.691C131.359 116.679 131.606 116.679 131.853 116.679C138.274 116.679 144.376 118.113 149.833 120.674C139.602 121.085 130.172 124.633 122.47 130.379C120.412 131.918 118.472 133.61 116.673 135.443C115.462 136.676 114.321 137.98 113.239 139.343L112.91 139.755C111.722 141.294 110.617 142.903 109.617 144.583C109.124 145.406 108.653 146.24 108.206 147.086C107.125 149.142 106.196 151.28 105.42 153.489C105.255 153.924 105.126 154.359 104.984 154.805C103.656 157.954 100.528 160.163 96.8944 160.163C94.3427 160.163 92.0498 159.07 90.4623 157.355C90.4035 157.425 90.333 157.496 90.2742 157.554C90.0272 157.789 89.7803 158.013 89.5334 158.224C88.0282 159.434 86.1116 160.163 84.0303 160.163C80.338 160.163 77.1866 157.895 75.8932 154.676C75.7873 154.312 75.658 153.947 75.5286 153.583C75.5286 153.571 75.5286 153.571 75.5286 153.571C74.6938 151.198 73.6943 148.919 72.5184 146.722C72.1186 145.958 71.6717 145.194 71.2249 144.454C70.1431 142.668 68.9672 140.953 67.6737 139.343C66.639 138.027 65.5336 136.759 64.3578 135.56C64.3342 135.501 64.3107 135.466 64.299 135.419C64.2754 135.431 64.2402 135.431 64.2284 135.419C62.4176 133.563 60.4538 131.859 58.3608 130.308C50.4236 124.422 40.6755 120.874 30.0926 120.65C35.4664 118.136 41.4399 116.715 47.7543 116.691C41.334 112.755 33.7731 110.499 25.6831 110.499C25.3656 110.499 25.0481 110.499 24.7188 110.511C23.6958 110.535 22.6963 110.593 21.6851 110.687C23.002 108.995 24.4954 107.444 26.1416 106.07C30.5747 102.322 36.0543 99.7958 42.0866 99.0086C40.7226 98.8207 39.335 98.7267 37.9122 98.7267C34.996 98.7267 32.1857 99.1261 29.5164 99.8781C32.9618 94.9787 37.7829 91.1132 43.4271 88.8692C36.6658 76.3329 32.8206 68.3552 32.8206 53.1049C32.8206 44.9392 33.9142 37.0321 35.9838 29.5244C55.3858 31.3103 71.9892 42.7774 80.9142 59.0382C83.9244 58.3097 87.064 57.9338 90.2859 57.9338C93.5431 57.9338 96.6945 58.3332 99.7283 59.0617H99.74C108.653 42.8127 125.21 31.3455 144.588 29.5362C146.658 37.0438 147.751 44.9392 147.751 53.1049C147.751 68.3435 143.906 76.3211 137.157 88.8574C142.765 91.1015 147.563 94.9199 151.008 99.7723C148.445 99.0909 145.752 98.7267 142.977 98.7267C141.496 98.7267 140.037 98.8324 138.603 99.0321C144.635 99.8781 150.126 102.439 154.524 106.234C156.159 107.597 157.64 109.16 158.969 110.875Z" stroke="#111010" stroke-width="2.13176" stroke-miterlimit="10"/>
<path d="M71.0238 83.3946C60.9935 83.3946 52.8682 91.5132 52.8682 101.523C52.8682 111.545 60.9935 119.664 71.0238 119.664C81.054 119.664 89.1676 111.545 89.1676 101.523C89.1676 91.5132 81.054 83.3946 71.0238 83.3946ZM71.0238 115.81C63.1336 115.81 56.7251 109.419 56.7251 101.523C56.7251 93.6398 63.1218 87.2365 71.0238 87.2365C78.9139 87.2365 85.3225 93.6281 85.3225 101.523C85.3225 109.419 78.9257 115.81 71.0238 115.81Z" fill="#111010"/>
<path d="M81.3123 101.523C81.3123 107.209 76.7029 111.815 71.0234 111.815C65.3321 111.815 60.7227 107.209 60.7227 101.523C60.7227 95.8479 65.3321 91.2422 71.0234 91.2422C76.7029 91.2422 81.3123 95.8479 81.3123 101.523Z" fill="white"/>
<path d="M109.71 83.3946C99.68 83.3946 91.5547 91.5132 91.5547 101.523C91.5547 111.545 99.68 119.664 109.71 119.664C119.741 119.664 127.854 111.545 127.854 101.523C127.854 91.5132 119.741 83.3946 109.71 83.3946ZM109.71 115.81C101.82 115.81 95.4116 109.419 95.4116 101.523C95.4116 93.6398 101.808 87.2365 109.71 87.2365C117.6 87.2365 124.009 93.6281 124.009 101.523C124.009 109.419 117.6 115.81 109.71 115.81Z" fill="#111010"/>
<path d="M48.1994 68.1672C47.8704 68.2377 47.5297 68.2965 47.1772 68.3082C47.518 68.273 47.8469 68.2142 48.1994 68.1672Z" fill="white"/>
<path d="M70.4827 56.4656V56.7475C70.4827 56.9473 70.4827 57.147 70.471 57.3467C70.3534 62.5164 68.4955 67.263 65.4617 71.011C62.4162 74.7824 58.1948 77.567 53.3501 78.8124C52.7269 78.9769 52.0802 79.1178 51.4452 79.2118C51.0219 79.2823 50.6221 79.3411 50.187 79.3763C50.0224 79.3998 49.846 79.3998 49.6814 79.3998C48.0704 79.3998 46.5771 78.9299 45.3306 78.1074C45.9186 78.2954 46.5418 78.3776 47.1885 78.3776C50.7279 78.3776 53.6088 75.5226 53.6088 71.9626C53.5971 71.6924 53.5736 71.4104 53.5383 71.1402C53.0327 65.4184 51.0689 60.1078 48.0352 55.5726C49.7402 56.3951 51.6334 56.8533 53.6441 56.8533C56.2546 56.8533 58.6769 56.0778 60.6994 54.7502C56.525 47.783 49.9048 42.4724 42.0146 39.9816C50.7985 40.7218 58.8415 44.035 65.4264 49.1459C66.2378 49.7686 67.0374 50.4383 67.8017 51.1315C67.9899 51.2725 68.1545 51.4369 68.3191 51.6014C69.5891 52.8821 70.3886 54.5857 70.4827 56.4656Z" fill="#777777"/>
<path d="M53.6443 56.8641C51.6335 56.8641 49.7403 56.4058 48.0353 55.5834C51.0691 60.1186 53.0328 65.4291 53.5384 71.151C53.5619 71.4212 53.5855 71.7032 53.609 71.9734C53.609 75.5216 50.7281 78.3884 47.1887 78.3884C46.5537 78.3884 45.9187 78.2944 45.3308 78.1182C43.7786 77.1078 42.6027 75.5804 42.0383 73.7828C41.6738 72.5726 41.3328 71.339 41.0506 70.0935C39.9688 65.5584 39.3926 60.8235 39.3926 55.9476C39.3926 52.9516 39.6042 50.0261 40.0158 47.1593C40.2275 45.6437 40.4979 44.1515 40.8389 42.6946C41.0388 41.7665 41.2622 40.85 41.5092 39.9336C41.6738 39.9453 41.8619 39.9571 42.0266 39.9806C49.905 42.4714 56.5369 47.7937 60.7113 54.7492C58.677 56.1004 56.2547 56.8641 53.6443 56.8641Z" fill="white"/>
<path d="M109.875 56.4656V56.7475C109.875 56.9473 109.875 57.147 109.887 57.3467C110.004 62.5164 111.862 67.263 114.896 71.011C117.942 74.7824 122.163 77.567 127.008 78.8124C127.631 78.9769 128.278 79.1178 128.913 79.2118C129.336 79.2823 129.736 79.3411 130.171 79.3763C130.335 79.3998 130.512 79.3998 130.676 79.3998C132.287 79.3998 133.781 78.9299 135.027 78.1074C134.439 78.2954 133.816 78.3776 133.169 78.3776C129.63 78.3776 126.749 75.5226 126.749 71.9626C126.761 71.6924 126.784 71.4104 126.819 71.1402C127.325 65.4184 129.289 60.1078 132.323 55.5726C130.618 56.3951 128.724 56.8533 126.714 56.8533C124.103 56.8533 121.681 56.0778 119.658 54.7502C123.833 47.783 130.453 42.4724 138.343 39.9816C129.559 40.7218 121.516 44.035 114.931 49.1459C114.12 49.7686 113.32 50.4383 112.556 51.1315C112.368 51.2725 112.203 51.4369 112.039 51.6014C110.769 52.8821 109.969 54.5857 109.875 56.4656Z" fill="#777777"/>
<path opacity="0.5" d="M70.4827 56.4656V56.7475C70.4827 56.9473 70.4827 57.147 70.471 57.3467C70.3534 62.5164 68.4955 67.263 65.4617 71.011C62.4162 74.7824 58.1948 77.567 53.3501 78.8124C52.7269 78.9769 52.0802 79.1178 51.4452 79.2118C51.0219 79.2823 50.6221 79.3411 50.187 79.3763C50.0224 79.3998 49.846 79.3998 49.6814 79.3998C48.0704 79.3998 46.5771 78.9299 45.3306 78.1074C45.9186 78.2954 46.5418 78.3776 47.1885 78.3776C50.7279 78.3776 53.6088 75.5226 53.6088 71.9626C53.5971 71.6924 53.5736 71.4104 53.5383 71.1402C53.0327 65.4184 51.0689 60.1078 48.0352 55.5726C49.7402 56.3951 51.6334 56.8533 53.6441 56.8533C56.2546 56.8533 58.6769 56.0778 60.6994 54.7502C56.525 47.783 49.9048 42.4724 42.0146 39.9816C50.7985 40.7218 58.8415 44.035 65.4264 49.1459C66.2378 49.7686 67.0374 50.4383 67.8017 51.1315C67.9899 51.2725 68.1545 51.4369 68.3191 51.6014C69.5891 52.8821 70.3886 54.5857 70.4827 56.4656Z" fill="#111010"/>
<path opacity="0.5" d="M109.875 56.4656V56.7475C109.875 56.9473 109.875 57.147 109.887 57.3467C110.004 62.5164 111.862 67.263 114.896 71.011C117.942 74.7824 122.163 77.567 127.008 78.8124C127.631 78.9769 128.278 79.1178 128.913 79.2118C129.336 79.2823 129.736 79.3411 130.171 79.3763C130.335 79.3998 130.512 79.3998 130.676 79.3998C132.287 79.3998 133.781 78.9299 135.027 78.1074C134.439 78.2954 133.816 78.3776 133.169 78.3776C129.63 78.3776 126.749 75.5226 126.749 71.9626C126.761 71.6924 126.784 71.4104 126.819 71.1402C127.325 65.4184 129.289 60.1078 132.323 55.5726C130.618 56.3951 128.724 56.8533 126.714 56.8533C124.103 56.8533 121.681 56.0778 119.658 54.7502C123.833 47.783 130.453 42.4724 138.343 39.9816C129.559 40.7218 121.516 44.035 114.931 49.1459C114.12 49.7686 113.32 50.4383 112.556 51.1315C112.368 51.2725 112.203 51.4369 112.039 51.6014C110.769 52.8821 109.969 54.5857 109.875 56.4656Z" fill="#111010"/>
<path d="M126.713 56.8641C128.723 56.8641 130.616 56.4058 132.321 55.5834C129.288 60.1186 127.324 65.4291 126.818 71.151C126.795 71.4212 126.771 71.7032 126.748 71.9734C126.748 75.5216 129.629 78.3884 133.168 78.3884C133.803 78.3884 134.438 78.2944 135.026 78.1182C136.578 77.1078 137.754 75.5804 138.318 73.7828C138.683 72.5726 139.024 71.339 139.306 70.0935C140.388 65.5584 140.964 60.8235 140.964 55.9476C140.964 52.9516 140.753 50.0261 140.341 47.1593C140.129 45.6437 139.859 44.1515 139.518 42.6946C139.318 41.7665 139.095 40.85 138.848 39.9336C138.683 39.9453 138.495 39.9571 138.33 39.9806C130.452 42.4714 123.82 47.7937 119.646 54.7492C121.68 56.1004 124.102 56.8641 126.713 56.8641Z" fill="white"/>
<path d="M93.3101 103.925V100.071H85.7021V103.925H93.3101Z" fill="#111010"/>
<path d="M78.2317 101.499C78.2317 105.482 74.9981 108.702 71.0236 108.702C67.0491 108.702 63.8154 105.482 63.8154 101.499C63.8154 98.2449 65.9908 95.4839 68.954 94.6144C68.4131 95.3311 68.1192 96.2123 68.1192 97.164C68.1192 99.5491 70.0711 101.499 72.4817 101.499C74.8452 101.499 76.7854 99.5961 76.8207 97.2345C77.7026 98.4212 78.2317 99.9015 78.2317 101.499Z" fill="#111010"/>
<path d="M119.975 101.523C119.975 107.209 115.365 111.815 109.686 111.815C103.995 111.815 99.3853 107.209 99.3853 101.523C99.3853 95.8479 103.995 91.2422 109.686 91.2422C115.365 91.2422 119.975 95.8479 119.975 101.523Z" fill="white"/>
<path d="M116.883 101.499C116.883 105.482 113.649 108.702 109.674 108.702C105.7 108.702 102.466 105.482 102.466 101.499C102.466 98.2449 104.642 95.4839 107.605 94.6144C107.064 95.3311 106.77 96.2123 106.77 97.164C106.77 99.5491 108.722 101.499 111.133 101.499C113.496 101.499 115.436 99.5961 115.472 97.2345C116.365 98.4212 116.883 99.9015 116.883 101.499Z" fill="#111010"/>
</svg>
