<svg width="31" height="31" viewBox="0 0 31 31" fill="none" xmlns="http://www.w3.org/2000/svg">
<g id="vuesax/linear/profile-circle">
<g id="profile-circle">
<path id="Vector" d="M15.6553 16.5075C15.5649 16.4946 15.4487 16.4946 15.3453 16.5075C13.072 16.43 11.2637 14.57 11.2637 12.2838C11.2637 9.94587 13.1495 8.04712 15.5003 8.04712C17.8383 8.04712 19.737 9.94587 19.737 12.2838C19.7241 14.57 17.9287 16.43 15.6553 16.5075Z" stroke="#4B94DD" stroke-width="2" stroke-linecap="round" stroke-linejoin="round"/>
<path id="Vector_2" d="M24.2056 25.0325C21.9064 27.1379 18.8581 28.4167 15.4998 28.4167C12.1414 28.4167 9.09311 27.1379 6.79395 25.0325C6.92311 23.8183 7.69811 22.63 9.0802 21.7C12.6194 19.3492 18.406 19.3492 21.9194 21.7C23.3014 22.63 24.0764 23.8183 24.2056 25.0325Z" stroke="#4B94DD" stroke-width="2" stroke-linecap="round" stroke-linejoin="round"/>
<path id="Vector_3" d="M15.4997 28.4167C22.6334 28.4167 28.4163 22.6337 28.4163 15.5C28.4163 8.36636 22.6334 2.58337 15.4997 2.58337C8.366 2.58337 2.58301 8.36636 2.58301 15.5C2.58301 22.6337 8.366 28.4167 15.4997 28.4167Z" stroke="#4B94DD" stroke-width="2" stroke-linecap="round" stroke-linejoin="round"/>
</g>
</g>
</svg>
