<svg width="31" height="31" viewBox="0 0 31 31" fill="none" xmlns="http://www.w3.org/2000/svg">
<path d="M15.6551 16.5075C15.5647 16.4946 15.4484 16.4946 15.3451 16.5075C13.0718 16.43 11.2634 14.57 11.2634 12.2838C11.2634 9.94584 13.1493 8.04709 15.5001 8.04709C17.838 8.04709 19.7368 9.94584 19.7368 12.2838C19.7238 14.57 17.9284 16.43 15.6551 16.5075Z" stroke="white" stroke-width="2" stroke-linecap="round" stroke-linejoin="round"/>
<path d="M24.2059 25.0325C21.9067 27.1379 18.8584 28.4167 15.5 28.4167C12.1417 28.4167 9.09336 27.1379 6.79419 25.0325C6.92336 23.8183 7.69836 22.63 9.08044 21.7C12.6196 19.3492 18.4063 19.3492 21.9196 21.7C23.3017 22.63 24.0767 23.8183 24.2059 25.0325Z" stroke="white" stroke-width="2" stroke-linecap="round" stroke-linejoin="round"/>
<path d="M15.4999 28.4167C22.6336 28.4167 28.4166 22.6337 28.4166 15.5C28.4166 8.36633 22.6336 2.58334 15.4999 2.58334C8.36624 2.58334 2.58325 8.36633 2.58325 15.5C2.58325 22.6337 8.36624 28.4167 15.4999 28.4167Z" stroke="white" stroke-width="2" stroke-linecap="round" stroke-linejoin="round"/>
</svg>
