<svg width="143" height="134" viewBox="0 0 143 134" fill="none" xmlns="http://www.w3.org/2000/svg">
<g id="Group">
<g id="Group_2">
<path id="Vector" d="M139.969 82.8752C138.958 82.7343 137.947 82.6285 136.912 82.5815C136.018 82.5228 135.113 82.4875 134.196 82.4875C126.094 82.4875 118.545 84.7551 112.113 88.691C112.359 88.6793 112.606 88.6793 112.853 88.6793C119.274 88.6793 125.376 90.1127 130.833 92.674C120.602 93.0852 111.172 96.6334 103.47 102.379C101.412 103.918 99.4718 105.61 97.6727 107.443C96.4615 108.676 95.3209 109.98 94.2391 111.343L93.9099 111.755C92.7222 113.294 91.6169 114.903 90.6174 116.583C90.1235 117.406 89.6532 118.24 89.2064 119.086C88.1245 121.142 87.1956 123.28 86.4195 125.489C86.2549 125.924 86.1255 126.359 85.9844 126.805C84.6557 129.954 81.5278 132.163 77.8944 132.163C75.3427 132.163 73.0498 131.07 71.4623 129.355C71.4035 129.425 71.333 129.496 71.2742 129.554C71.0272 129.789 70.7803 130.013 70.5334 130.224C69.0282 131.434 67.1116 132.163 65.0303 132.163C61.338 132.163 58.1866 129.895 56.8932 126.676C56.7873 126.312 56.658 125.947 56.5286 125.583C56.5286 125.571 56.5286 125.571 56.5286 125.571C55.6938 123.198 54.6943 120.919 53.5184 118.722C53.1186 117.958 52.6717 117.194 52.2249 116.454C51.1431 114.668 49.9672 112.953 48.6737 111.343C47.639 110.027 46.5336 108.759 45.3578 107.56C45.3342 107.501 45.3107 107.466 45.299 107.419C45.2754 107.431 45.2402 107.431 45.2284 107.419C43.4176 105.563 41.4538 103.859 39.3608 102.308C31.4236 96.422 21.6755 92.8737 11.0926 92.6505C16.4664 90.1362 22.4399 88.7145 28.7543 88.691C22.334 84.7551 14.7731 82.4993 6.68305 82.4993C6.36556 82.4993 6.04808 82.4993 5.71883 82.511C4.69581 82.5345 3.69632 82.5933 2.68506 82.6873C4.00204 80.9954 5.49541 79.4445 7.14165 78.0698C11.5747 74.3219 17.0543 71.7958 23.0866 71.0086C21.7226 70.8207 20.335 70.7267 18.9122 70.7267C15.996 70.7267 13.1857 71.1261 10.5164 71.8781C13.9618 66.9787 18.7829 63.1132 24.4271 60.8692C17.6658 48.3329 13.8206 40.3552 13.8206 25.1049C13.8206 16.9392 14.9142 9.03209 16.9838 1.52441C36.3858 3.31028 52.9892 14.7774 61.9142 31.0382C64.9244 30.3097 68.064 29.9338 71.2859 29.9338C74.5431 29.9338 77.6945 30.3332 80.7283 31.0617H80.74C89.6532 14.8127 106.21 3.34553 125.588 1.53616C127.658 9.04384 128.751 16.9392 128.751 25.1049C128.751 40.3435 124.906 48.3211 118.157 60.8574C123.765 63.1015 128.563 66.9199 132.008 71.7723C129.445 71.0909 126.752 70.7267 123.977 70.7267C122.496 70.7267 121.037 70.8324 119.603 71.0321C125.635 71.8781 131.126 74.4394 135.524 78.2343C137.159 79.5972 138.64 81.1599 139.969 82.8752Z" fill="#777777"/>
<path id="Vector_2" d="M82.1139 118.253C82.1139 124.198 77.3045 129.038 71.3663 129.085H71.3075C71.2958 129.085 71.2958 129.085 71.284 129.085C65.2988 129.085 60.4424 124.233 60.4424 118.253C60.4424 114.234 62.6413 110.733 65.8985 108.865C67.4741 107.949 69.3203 107.432 71.284 107.432C73.283 107.432 75.1527 107.972 76.7519 108.912C79.962 110.78 82.1139 114.27 82.1139 118.253Z" fill="#111010"/>
<path id="Vector_3" d="M71.3198 129.473C71.2963 129.508 71.2728 129.531 71.261 129.543C71.0141 129.778 70.7672 130.001 70.5085 130.213C69.0033 131.423 67.0867 132.152 65.0054 132.152C61.3131 132.152 58.1617 129.884 56.8683 126.665C56.7624 126.3 56.6331 125.936 56.5037 125.572C56.5037 125.56 56.5037 125.56 56.5037 125.56C55.6689 123.187 54.6694 120.908 53.4935 118.711C53.0937 117.947 52.6468 117.183 52.2 116.443C51.1182 114.657 49.9423 112.942 48.6489 111.332C47.6141 110.016 46.5088 108.747 45.3329 107.549C45.3094 107.49 45.2858 107.455 45.2741 107.408C45.2506 107.42 45.2153 107.42 45.2035 107.408C43.3927 105.552 41.4289 103.848 39.3359 102.297C31.3987 96.4107 21.6506 92.8625 11.0677 92.6393C16.4415 90.125 22.415 88.7033 28.7294 88.6798C22.3091 84.7439 14.7482 82.488 6.65815 82.488C6.34066 82.488 6.02318 82.488 5.69393 82.4998C4.67091 82.5233 3.67141 82.582 2.66016 82.676C2.68367 82.6525 2.69543 82.629 2.71895 82.6173C7.88107 80.9137 13.4077 79.9855 19.146 79.9855C39.6181 79.9855 57.3386 91.7581 65.8873 108.877C62.6301 110.745 60.4312 114.246 60.4312 118.264C60.4312 124.244 65.2876 129.097 71.2728 129.097C71.2846 129.097 71.2846 129.097 71.2963 129.097C71.2963 129.202 71.3081 129.343 71.3198 129.473Z" fill="white"/>
<path id="Vector_4" d="M139.969 82.8745C138.958 82.7335 137.947 82.6277 136.912 82.5807C136.018 82.522 135.113 82.4868 134.196 82.4868C126.094 82.4868 118.545 84.7543 112.112 88.6903C112.359 88.6785 112.606 88.6785 112.853 88.6785C119.274 88.6785 125.376 90.1119 130.832 92.6732C120.602 93.0844 111.172 96.6327 103.47 102.378C101.412 103.917 99.4718 105.609 97.6727 107.442C96.4615 108.676 95.3209 109.98 94.2391 111.343L93.9098 111.754C92.7222 113.293 91.6169 114.903 90.6174 116.583C90.1235 117.405 89.6532 118.239 89.2063 119.085C88.1245 121.141 87.1956 123.28 86.4195 125.488C86.2549 125.923 86.1255 126.358 85.9844 126.804C84.6557 129.953 81.5278 132.162 77.8943 132.162C75.3427 132.162 73.0497 131.069 71.4623 129.354C71.427 129.401 71.4035 129.424 71.3564 129.46C71.3682 129.33 71.38 129.213 71.38 129.084C77.3182 129.037 82.1275 124.196 82.1275 118.251C82.1275 114.268 79.9757 110.779 76.7655 108.899C85.3141 91.7451 103.035 79.9607 123.53 79.9607C129.163 79.9607 134.595 80.8536 139.675 82.5102C139.781 82.6277 139.875 82.757 139.969 82.8745Z" fill="white"/>
<path id="Vector_5" d="M139.969 82.8752C138.958 82.7343 137.947 82.6285 136.912 82.5815C136.018 82.5228 135.113 82.4875 134.196 82.4875C126.094 82.4875 118.545 84.7551 112.113 88.691C112.359 88.6793 112.606 88.6793 112.853 88.6793C119.274 88.6793 125.376 90.1127 130.833 92.674C120.602 93.0852 111.172 96.6334 103.47 102.379C101.412 103.918 99.4718 105.61 97.6727 107.443C96.4615 108.676 95.3209 109.98 94.2391 111.343L93.9099 111.755C92.7222 113.294 91.6169 114.903 90.6174 116.583C90.1235 117.406 89.6532 118.24 89.2064 119.086C88.1245 121.142 87.1956 123.28 86.4195 125.489C86.2549 125.924 86.1255 126.359 85.9844 126.805C84.6557 129.954 81.5278 132.163 77.8944 132.163C75.3427 132.163 73.0498 131.07 71.4623 129.355C71.4035 129.425 71.333 129.496 71.2742 129.554C71.0272 129.789 70.7803 130.013 70.5334 130.224C69.0282 131.434 67.1116 132.163 65.0303 132.163C61.338 132.163 58.1866 129.895 56.8932 126.676C56.7873 126.312 56.658 125.947 56.5286 125.583C56.5286 125.571 56.5286 125.571 56.5286 125.571C55.6938 123.198 54.6943 120.919 53.5184 118.722C53.1186 117.958 52.6717 117.194 52.2249 116.454C51.1431 114.668 49.9672 112.953 48.6737 111.343C47.639 110.027 46.5336 108.759 45.3578 107.56C45.3342 107.501 45.3107 107.466 45.299 107.419C45.2754 107.431 45.2402 107.431 45.2284 107.419C43.4176 105.563 41.4538 103.859 39.3608 102.308C31.4236 96.422 21.6755 92.8737 11.0926 92.6505C16.4664 90.1362 22.4399 88.7145 28.7543 88.691C22.334 84.7551 14.7731 82.4993 6.68305 82.4993C6.36556 82.4993 6.04808 82.4993 5.71883 82.511C4.69581 82.5345 3.69632 82.5933 2.68506 82.6873C4.00204 80.9954 5.49541 79.4445 7.14165 78.0698C11.5747 74.3219 17.0543 71.7958 23.0866 71.0086C21.7226 70.8207 20.335 70.7267 18.9122 70.7267C15.996 70.7267 13.1857 71.1261 10.5164 71.8781C13.9618 66.9787 18.7829 63.1132 24.4271 60.8692C17.6658 48.3329 13.8206 40.3552 13.8206 25.1049C13.8206 16.9392 14.9142 9.03209 16.9838 1.52441C36.3858 3.31028 52.9892 14.7774 61.9142 31.0382C64.9244 30.3097 68.064 29.9338 71.2859 29.9338C74.5431 29.9338 77.6945 30.3332 80.7283 31.0617H80.74C89.6532 14.8127 106.21 3.34553 125.588 1.53616C127.658 9.04384 128.751 16.9392 128.751 25.1049C128.751 40.3435 124.906 48.3211 118.157 60.8574C123.765 63.1015 128.563 66.9199 132.008 71.7723C129.445 71.0909 126.752 70.7267 123.977 70.7267C122.496 70.7267 121.037 70.8324 119.603 71.0321C125.635 71.8781 131.126 74.4394 135.524 78.2343C137.159 79.5972 138.64 81.1599 139.969 82.8752Z" stroke="#111010" stroke-width="2.13176" stroke-miterlimit="10"/>
<path id="Vector_6" d="M52.0238 55.3945C41.9935 55.3945 33.8682 63.5132 33.8682 73.5234C33.8682 83.5454 41.9935 91.664 52.0238 91.664C62.054 91.664 70.1676 83.5454 70.1676 73.5234C70.1676 63.5132 62.054 55.3945 52.0238 55.3945ZM52.0238 87.8103C44.1336 87.8103 37.7251 81.4188 37.7251 73.5234C37.7251 65.6398 44.1218 59.2365 52.0238 59.2365C59.9139 59.2365 66.3225 65.628 66.3225 73.5234C66.3225 81.4188 59.9257 87.8103 52.0238 87.8103Z" fill="#111010"/>
<path id="Vector_7" d="M62.3123 73.5227C62.3123 79.2092 57.7029 83.8149 52.0234 83.8149C46.3321 83.8149 41.7227 79.2092 41.7227 73.5227C41.7227 67.8478 46.3321 63.2422 52.0234 63.2422C57.7029 63.2422 62.3123 67.8478 62.3123 73.5227Z" fill="white"/>
<path id="Vector_8" d="M90.7103 55.3945C80.68 55.3945 72.5547 63.5132 72.5547 73.5234C72.5547 83.5454 80.68 91.664 90.7103 91.664C100.741 91.664 108.854 83.5454 108.854 73.5234C108.854 63.5132 100.741 55.3945 90.7103 55.3945ZM90.7103 87.8103C82.8201 87.8103 76.4116 81.4188 76.4116 73.5234C76.4116 65.6398 82.8084 59.2365 90.7103 59.2365C98.6004 59.2365 105.009 65.628 105.009 73.5234C105.009 81.4188 98.6004 87.8103 90.7103 87.8103Z" fill="#111010"/>
<path id="Vector_9" d="M29.1994 40.1672C28.8704 40.2377 28.5297 40.2965 28.1772 40.3082C28.518 40.273 28.8469 40.2142 29.1994 40.1672Z" fill="white"/>
<path id="Vector_10" d="M51.4827 28.4656V28.7475C51.4827 28.9473 51.4827 29.147 51.471 29.3467C51.3534 34.5164 49.4955 39.263 46.4617 43.011C43.4162 46.7824 39.1948 49.567 34.3501 50.8124C33.7269 50.9769 33.0802 51.1178 32.4452 51.2118C32.0219 51.2823 31.6221 51.3411 31.187 51.3763C31.0224 51.3998 30.846 51.3998 30.6814 51.3998C29.0704 51.3998 27.5771 50.9299 26.3306 50.1074C26.9186 50.2954 27.5418 50.3776 28.1885 50.3776C31.7279 50.3776 34.6088 47.5226 34.6088 43.9626C34.5971 43.6924 34.5736 43.4104 34.5383 43.1402C34.0327 37.4184 32.0689 32.1078 29.0352 27.5726C30.7402 28.3951 32.6334 28.8533 34.6441 28.8533C37.2546 28.8533 39.6769 28.0778 41.6994 26.7502C37.525 19.783 30.9048 14.4724 23.0146 11.9816C31.7985 12.7218 39.8415 16.035 46.4264 21.1459C47.2378 21.7686 48.0374 22.4383 48.8017 23.1315C48.9899 23.2725 49.1545 23.4369 49.3191 23.6014C50.5891 24.8821 51.3886 26.5857 51.4827 28.4656Z" fill="#777777"/>
<path id="Vector_11" d="M34.6443 28.8641C32.6335 28.8641 30.7403 28.4058 29.0353 27.5834C32.0691 32.1186 34.0328 37.4291 34.5384 43.151C34.5619 43.4212 34.5855 43.7032 34.609 43.9734C34.609 47.5216 31.7281 50.3884 28.1887 50.3884C27.5537 50.3884 26.9187 50.2944 26.3308 50.1182C24.7786 49.1078 23.6027 47.5804 23.0383 45.7828C22.6738 44.5726 22.3328 43.339 22.0506 42.0935C20.9688 37.5584 20.3926 32.8235 20.3926 27.9476C20.3926 24.9516 20.6042 22.0261 21.0158 19.1593C21.2275 17.6437 21.4979 16.1515 21.8389 14.6946C22.0388 13.7665 22.2622 12.85 22.5092 11.9336C22.6738 11.9453 22.8619 11.9571 23.0266 11.9806C30.905 14.4714 37.5369 19.7937 41.7113 26.7492C39.677 28.1004 37.2547 28.8641 34.6443 28.8641Z" fill="white"/>
<path id="Vector_12" d="M90.875 28.4656V28.7475C90.875 28.9473 90.875 29.147 90.8868 29.3467C91.0043 34.5164 92.8622 39.263 95.896 43.011C98.9415 46.7824 103.163 49.567 108.008 50.8124C108.631 50.9769 109.278 51.1178 109.913 51.2118C110.336 51.2823 110.736 51.3411 111.171 51.3763C111.335 51.3998 111.512 51.3998 111.676 51.3998C113.287 51.3998 114.781 50.9299 116.027 50.1074C115.439 50.2954 114.816 50.3776 114.169 50.3776C110.63 50.3776 107.749 47.5226 107.749 43.9626C107.761 43.6924 107.784 43.4104 107.819 43.1402C108.325 37.4184 110.289 32.1078 113.323 27.5726C111.618 28.3951 109.724 28.8533 107.714 28.8533C105.103 28.8533 102.681 28.0778 100.658 26.7502C104.833 19.783 111.453 14.4724 119.343 11.9816C110.559 12.7218 102.516 16.035 95.9313 21.1459C95.1199 21.7686 94.3203 22.4383 93.556 23.1315C93.3679 23.2725 93.2032 23.4369 93.0386 23.6014C91.7687 24.8821 90.9691 26.5857 90.875 28.4656Z" fill="#777777"/>
<path id="Vector_13" opacity="0.5" d="M51.4827 28.4656V28.7475C51.4827 28.9473 51.4827 29.147 51.471 29.3467C51.3534 34.5164 49.4955 39.263 46.4617 43.011C43.4162 46.7824 39.1948 49.567 34.3501 50.8124C33.7269 50.9769 33.0802 51.1178 32.4452 51.2118C32.0219 51.2823 31.6221 51.3411 31.187 51.3763C31.0224 51.3998 30.846 51.3998 30.6814 51.3998C29.0704 51.3998 27.5771 50.9299 26.3306 50.1074C26.9186 50.2954 27.5418 50.3776 28.1885 50.3776C31.7279 50.3776 34.6088 47.5226 34.6088 43.9626C34.5971 43.6924 34.5736 43.4104 34.5383 43.1402C34.0327 37.4184 32.0689 32.1078 29.0352 27.5726C30.7402 28.3951 32.6334 28.8533 34.6441 28.8533C37.2546 28.8533 39.6769 28.0778 41.6994 26.7502C37.525 19.783 30.9048 14.4724 23.0146 11.9816C31.7985 12.7218 39.8415 16.035 46.4264 21.1459C47.2378 21.7686 48.0374 22.4383 48.8017 23.1315C48.9899 23.2725 49.1545 23.4369 49.3191 23.6014C50.5891 24.8821 51.3886 26.5857 51.4827 28.4656Z" fill="#111010"/>
<path id="Vector_14" opacity="0.5" d="M90.875 28.4656V28.7475C90.875 28.9473 90.875 29.147 90.8868 29.3467C91.0043 34.5164 92.8622 39.263 95.896 43.011C98.9415 46.7824 103.163 49.567 108.008 50.8124C108.631 50.9769 109.278 51.1178 109.913 51.2118C110.336 51.2823 110.736 51.3411 111.171 51.3763C111.335 51.3998 111.512 51.3998 111.676 51.3998C113.287 51.3998 114.781 50.9299 116.027 50.1074C115.439 50.2954 114.816 50.3776 114.169 50.3776C110.63 50.3776 107.749 47.5226 107.749 43.9626C107.761 43.6924 107.784 43.4104 107.819 43.1402C108.325 37.4184 110.289 32.1078 113.323 27.5726C111.618 28.3951 109.724 28.8533 107.714 28.8533C105.103 28.8533 102.681 28.0778 100.658 26.7502C104.833 19.783 111.453 14.4724 119.343 11.9816C110.559 12.7218 102.516 16.035 95.9313 21.1459C95.1199 21.7686 94.3203 22.4383 93.556 23.1315C93.3679 23.2725 93.2032 23.4369 93.0386 23.6014C91.7687 24.8821 90.9691 26.5857 90.875 28.4656Z" fill="#111010"/>
<path id="Vector_15" d="M107.713 28.8641C109.723 28.8641 111.616 28.4058 113.321 27.5834C110.288 32.1186 108.324 37.4291 107.818 43.151C107.795 43.4212 107.771 43.7032 107.748 43.9734C107.748 47.5216 110.629 50.3884 114.168 50.3884C114.803 50.3884 115.438 50.2944 116.026 50.1182C117.578 49.1078 118.754 47.5804 119.318 45.7828C119.683 44.5726 120.024 43.339 120.306 42.0935C121.388 37.5584 121.964 32.8235 121.964 27.9476C121.964 24.9516 121.753 22.0261 121.341 19.1593C121.129 17.6437 120.859 16.1515 120.518 14.6946C120.318 13.7665 120.095 12.85 119.848 11.9336C119.683 11.9453 119.495 11.9571 119.33 11.9806C111.452 14.4714 104.82 19.7937 100.646 26.7492C102.68 28.1004 105.102 28.8641 107.713 28.8641Z" fill="white"/>
<path id="Vector_16" d="M74.3101 75.925V72.0713H66.7021V75.925H74.3101Z" fill="#111010"/>
<path id="Vector_17" d="M59.2317 73.4995C59.2317 77.4824 55.9981 80.7017 52.0236 80.7017C48.0491 80.7017 44.8154 77.4824 44.8154 73.4995C44.8154 70.245 46.9908 67.4839 49.954 66.6145C49.4131 67.3312 49.1192 68.2124 49.1192 69.1641C49.1192 71.5491 51.0711 73.4995 53.4817 73.4995C55.8452 73.4995 57.7854 71.5961 57.8207 69.2346C58.7026 70.4212 59.2317 71.9016 59.2317 73.4995Z" fill="#111010"/>
<path id="Vector_18" d="M100.975 73.5227C100.975 79.2092 96.3655 83.8149 90.686 83.8149C84.9947 83.8149 80.3853 79.2092 80.3853 73.5227C80.3853 67.8478 84.9947 63.2422 90.686 63.2422C96.3655 63.2422 100.975 67.8478 100.975 73.5227Z" fill="white"/>
<path id="Vector_19" d="M97.8826 73.4995C97.8826 77.4824 94.6489 80.7017 90.6745 80.7017C86.7 80.7017 83.4663 77.4824 83.4663 73.4995C83.4663 70.245 85.6417 67.4839 88.6049 66.6145C88.064 67.3312 87.77 68.2124 87.77 69.1641C87.77 71.5491 89.722 73.4995 92.1325 73.4995C94.4961 73.4995 96.4363 71.5961 96.4715 69.2346C97.3652 70.4212 97.8826 71.9016 97.8826 73.4995Z" fill="#111010"/>
</g>
</g>
</svg>
